# Blender v2.79 (sub 0) OBJ File: ''
# www.blender.org
mtllib test.mtl
o Cylinder
v 0.999990 -0.781004 -0.237277
v 0.999990 1.218996 -0.237277
v 1.195080 -0.781004 -0.218062
v 1.195080 1.218996 -0.218062
v 1.382673 -0.781004 -0.161156
v 1.382673 1.218996 -0.161156
v 1.555560 -0.781004 -0.068746
v 1.555560 1.218996 -0.068746
v 1.707096 -0.781004 0.055616
v 1.707096 1.218996 0.055616
v 1.831459 -0.781004 0.207153
v 1.831459 1.218996 0.207153
v 1.923869 -0.781004 0.380040
v 1.923869 1.218996 0.380040
v 1.980775 -0.781004 0.567633
v 1.980775 1.218996 0.567633
v 1.999990 -0.781004 0.762723
v 1.999990 1.218996 0.762723
v 1.980775 -0.781004 0.957813
v 1.980775 1.218996 0.957813
v 1.923869 -0.781004 1.145406
v 1.923869 1.218996 1.145406
v 1.831459 -0.781004 1.318293
v 1.831459 1.218996 1.318293
v 1.707096 -0.781004 1.469830
v 1.707096 1.218996 1.469830
v 1.555560 -0.781004 1.594193
v 1.555560 1.218996 1.594193
v 1.382673 -0.781004 1.686603
v 1.382673 1.218996 1.686603
v 1.195080 -0.781004 1.743508
v 1.195080 1.218996 1.743508
v 0.999989 -0.781004 1.762723
v 0.999989 1.218996 1.762723
v 0.804899 -0.781004 1.743508
v 0.804899 1.218996 1.743508
v 0.617306 -0.781004 1.686602
v 0.617306 1.218996 1.686602
v 0.444419 -0.781004 1.594193
v 0.444419 1.218996 1.594193
v 0.292882 -0.781004 1.469830
v 0.292882 1.218996 1.469830
v 0.168519 -0.781004 1.318293
v 0.168519 1.218996 1.318293
v 0.076110 -0.781004 1.145406
v 0.076110 1.218996 1.145406
v 0.019204 -0.781004 0.957813
v 0.019204 1.218996 0.957813
v -0.000010 -0.781004 0.762722
v -0.000010 1.218996 0.762722
v 0.019204 -0.781004 0.567632
v 0.019204 1.218996 0.567632
v 0.076110 -0.781004 0.380039
v 0.076110 1.218996 0.380039
v 0.168521 -0.781004 0.207152
v 0.168521 1.218996 0.207152
v 0.292884 -0.781004 0.055615
v 0.292884 1.218996 0.055615
v 0.444420 -0.781004 -0.068747
v 0.444420 1.218996 -0.068747
v 0.617307 -0.781004 -0.161157
v 0.617307 1.218996 -0.161157
v 0.804901 -0.781004 -0.218062
v 0.804901 1.218996 -0.218062
v 0.999990 -0.111936 0.211170
v 0.999990 0.108685 0.211170
v 0.999990 0.329307 0.211170
v 0.999990 0.549928 0.211170
v 1.107592 0.549928 0.221767
v 1.107592 0.329307 0.221767
v 1.107592 0.108685 0.221767
v 1.107592 -0.111936 0.221767
v 1.211060 0.549928 0.253154
v 1.211060 0.329307 0.253154
v 1.211060 0.108685 0.253154
v 1.211060 -0.111936 0.253154
v 1.306416 0.549928 0.304123
v 1.306416 0.329307 0.304123
v 1.306416 0.108685 0.304123
v 1.306416 -0.111936 0.304123
v 1.389997 0.549928 0.372716
v 1.389997 0.329307 0.372716
v 1.389997 0.108685 0.372716
v 1.389997 -0.111936 0.372716
v 1.458590 0.549928 0.456296
v 1.458590 0.329307 0.456296
v 1.458590 0.108685 0.456296
v 1.458590 -0.111936 0.456296
v 1.509558 0.549928 0.551653
v 1.509558 0.329307 0.551653
v 1.509558 0.108685 0.551653
v 1.509558 -0.111936 0.551653
v 1.540945 0.549928 0.655120
v 1.540945 0.329307 0.655120
v 1.540945 0.108685 0.655120
v 1.540945 -0.111936 0.655120
v 1.551543 0.549928 0.762723
v 1.551543 0.329307 0.762723
v 1.551543 0.108685 0.762723
v 1.551543 -0.111936 0.762723
v 1.540945 0.549928 0.870326
v 1.540945 0.329307 0.870326
v 1.540945 0.108685 0.870326
v 1.540945 -0.111936 0.870326
v 1.509558 0.549928 0.973793
v 1.509558 0.329307 0.973793
v 1.509558 0.108685 0.973793
v 1.509558 -0.111936 0.973793
v 1.458590 0.549928 1.069150
v 1.458590 0.329307 1.069150
v 1.458590 0.108685 1.069150
v 1.458590 -0.111936 1.069150
v 1.389997 0.549928 1.152730
v 1.389997 0.329307 1.152730
v 1.389997 0.108685 1.152730
v 1.389997 -0.111936 1.152730
v 1.306416 0.549928 1.221323
v 1.306416 0.329307 1.221323
v 1.306416 0.108685 1.221323
v 1.306416 -0.111936 1.221323
v 1.211060 0.549928 1.272292
v 1.211060 0.329307 1.272292
v 1.211060 0.108685 1.272292
v 1.211060 -0.111936 1.272292
v 1.107592 0.549928 1.303679
v 1.107592 0.329307 1.303679
v 1.107592 0.108685 1.303679
v 1.107592 -0.111936 1.303679
v 0.999989 0.549928 1.314276
v 0.999989 0.329307 1.314276
v 0.999989 0.108685 1.314276
v 0.999989 -0.111936 1.314276
v 0.892387 0.549928 1.303678
v 0.892387 0.329307 1.303678
v 0.892387 0.108685 1.303678
v 0.892387 -0.111936 1.303678
v 0.788919 0.549928 1.272292
v 0.788919 0.329307 1.272292
v 0.788919 0.108685 1.272292
v 0.788919 -0.111936 1.272292
v 0.693563 0.549928 1.221323
v 0.693563 0.329307 1.221323
v 0.693563 0.108685 1.221323
v 0.693563 -0.111936 1.221323
v 0.609982 0.549928 1.152730
v 0.609982 0.329307 1.152730
v 0.609982 0.108685 1.152730
v 0.609982 -0.111936 1.152730
v 0.541389 0.549928 1.069149
v 0.541389 0.329307 1.069149
v 0.541389 0.108685 1.069149
v 0.541389 -0.111936 1.069149
v 0.490420 0.549928 0.973793
v 0.490420 0.329307 0.973793
v 0.490420 0.108685 0.973793
v 0.490420 -0.111936 0.973793
v 0.459034 0.549928 0.870325
v 0.459034 0.329307 0.870325
v 0.459034 0.108685 0.870325
v 0.459034 -0.111936 0.870325
v 0.448436 0.549928 0.762722
v 0.448436 0.329307 0.762722
v 0.448436 0.108685 0.762722
v 0.448436 -0.111936 0.762722
v 0.459034 0.549928 0.655120
v 0.459034 0.329307 0.655120
v 0.459034 0.108685 0.655120
v 0.459034 -0.111936 0.655120
v 0.490421 0.549928 0.551652
v 0.490421 0.329307 0.551652
v 0.490421 0.108685 0.551652
v 0.490421 -0.111936 0.551652
v 0.541390 0.549928 0.456296
v 0.541390 0.329307 0.456296
v 0.541390 0.108685 0.456296
v 0.541390 -0.111936 0.456296
v 0.609983 0.549928 0.372715
v 0.609983 0.329307 0.372715
v 0.609983 0.108685 0.372715
v 0.609983 -0.111936 0.372715
v 0.693564 0.549928 0.304123
v 0.693564 0.329307 0.304123
v 0.693564 0.108685 0.304123
v 0.693564 -0.111936 0.304123
v 0.788920 0.549928 0.253154
v 0.788920 0.329307 0.253154
v 0.788920 0.108685 0.253154
v 0.788920 -0.111936 0.253154
v 0.892388 0.549928 0.221767
v 0.892388 0.329307 0.221767
v 0.892388 0.108685 0.221767
v 0.892388 -0.111936 0.221767
v 1.952322 -0.781004 0.473836
v 1.952322 1.218996 0.473836
v 1.525252 -0.111936 0.603386
v 1.525252 0.108685 0.603386
v 1.525252 0.329307 0.603386
v 1.525252 0.549928 0.603386
v 1.999990 -0.781004 0.762723
v 1.999990 1.218996 0.762723
v 1.551543 -0.111936 0.762723
v 1.551543 0.108685 0.762723
v 1.551543 0.329307 0.762723
v 1.551543 0.549928 0.762723
v 2.047543 -0.974054 0.865898
v 2.047543 1.412046 0.865898
v 1.517664 -0.175822 0.813709
v 1.517664 0.087390 0.813709
v 1.517664 0.350602 0.813709
v 1.517664 0.613815 0.813709
vn 0.0000 -0.2962 -0.9551
vn -0.0063 0.4490 -0.8935
vn 0.1681 0.4495 -0.8773
vn 0.1863 -0.2962 -0.9368
vn 0.3361 0.4500 -0.8274
vn 0.3655 -0.2962 -0.8824
vn 0.4913 0.4505 -0.7454
vn 0.5306 -0.2962 -0.7942
vn 0.6276 0.4509 -0.6346
vn 0.6754 -0.2962 -0.6754
vn 0.7397 0.4512 -0.4991
vn 0.7942 -0.2962 -0.5306
vn 0.8232 0.4515 -0.3442
vn 0.8824 -0.2962 -0.3655
vn 0.9158 -0.2899 -0.2778
vn 0.8418 0.4742 -0.2579
vn 0.8746 0.4517 -0.1758
vn 0.9368 -0.2962 -0.1863
vn 0.6968 -0.2160 0.6839
vn 0.6096 0.3569 0.7077
vn 0.4256 0.1284 0.8957
vn 0.4562 -0.0855 0.8857
vn 0.9153 -0.3926 0.0901
vn 0.8467 0.5254 0.0834
vn 0.9501 0.0395 -0.3094
vn 0.9661 -0.2324 -0.1123
vn 0.8235 0.4517 0.3431
vn 0.8824 -0.2962 0.3655
vn 0.7402 0.4515 0.4982
vn 0.7942 -0.2962 0.5306
vn 0.6281 0.4512 0.6339
vn 0.6754 -0.2962 0.6754
vn 0.4918 0.4509 0.7449
vn 0.5306 -0.2962 0.7942
vn 0.3365 0.4505 0.8270
vn 0.3655 -0.2962 0.8824
vn 0.1682 0.4500 0.8770
vn 0.1863 -0.2962 0.9368
vn -0.0063 0.4495 0.8932
vn 0.0000 -0.2962 0.9551
vn -0.1805 0.4490 0.8751
vn -0.1863 -0.2962 0.9368
vn -0.3476 0.4485 0.8234
vn -0.3655 -0.2962 0.8824
vn -0.5013 0.4480 0.7402
vn -0.5306 -0.2962 0.7942
vn -0.6357 0.4476 0.6288
vn -0.6754 -0.2962 0.6754
vn -0.7458 0.4473 0.4935
vn -0.7942 -0.2962 0.5306
vn -0.8275 0.4470 0.3395
vn -0.8824 -0.2962 0.3655
vn -0.8778 0.4468 0.1727
vn -0.9368 -0.2962 0.1863
vn -0.8947 0.4467 -0.0006
vn -0.9551 -0.2962 0.0000
vn -0.8776 0.4467 -0.1739
vn -0.9368 -0.2962 -0.1863
vn -0.8272 0.4468 -0.3406
vn -0.8824 -0.2962 -0.3655
vn -0.7454 0.4470 -0.4945
vn -0.7942 -0.2962 -0.5306
vn -0.6352 0.4473 -0.6296
vn -0.6754 -0.2962 -0.6754
vn -0.5008 0.4476 -0.7408
vn -0.5306 -0.2962 -0.7942
vn -0.3472 0.4480 -0.8238
vn -0.3655 -0.2962 -0.8824
vn -0.1803 0.4485 -0.8754
vn -0.1863 -0.2962 -0.9368
vn -0.0063 -0.4490 -0.8935
vn 0.1681 -0.4495 -0.8773
vn 0.3361 -0.4500 -0.8274
vn 0.4913 -0.4505 -0.7454
vn 0.6276 -0.4509 -0.6346
vn 0.7397 -0.4512 -0.4991
vn 0.8232 -0.4515 -0.3442
vn 0.8418 -0.4742 -0.2579
vn 0.8746 -0.4517 -0.1758
vn 0.6096 -0.3569 0.7077
vn 0.4256 -0.1284 0.8957
vn 0.8467 -0.5254 0.0834
vn 0.9501 -0.0395 -0.3094
vn 0.8235 -0.4517 0.3431
vn 0.7402 -0.4515 0.4982
vn 0.6281 -0.4512 0.6339
vn 0.4918 -0.4509 0.7449
vn 0.3365 -0.4505 0.8270
vn 0.1682 -0.4500 0.8770
vn -0.0063 -0.4495 0.8932
vn -0.1805 -0.4490 0.8751
vn -0.3476 -0.4485 0.8234
vn -0.5013 -0.4480 0.7402
vn -0.6357 -0.4476 0.6288
vn -0.7458 -0.4473 0.4935
vn -0.8275 -0.4470 0.3395
vn -0.8778 -0.4468 0.1727
vn -0.8947 -0.4467 -0.0006
vn -0.8776 -0.4467 -0.1739
vn -0.8272 -0.4468 -0.3406
vn -0.7454 -0.4470 -0.4945
vn -0.6352 -0.4473 -0.6296
vn -0.5008 -0.4476 -0.7408
vn -0.3472 -0.4480 -0.8238
vn -0.1803 -0.4485 -0.8754
vn -0.1863 0.2962 -0.9368
vn 0.0000 0.2962 -0.9551
vn -0.1951 0.0000 -0.9808
vn 0.0000 0.0000 -1.0000
vn -0.3655 0.2962 -0.8824
vn -0.3827 0.0000 -0.9239
vn -0.5306 0.2962 -0.7942
vn -0.5556 0.0000 -0.8314
vn -0.6754 0.2962 -0.6754
vn -0.7071 0.0000 -0.7071
vn -0.7942 0.2962 -0.5306
vn -0.8314 0.0000 -0.5556
vn -0.8824 0.2962 -0.3655
vn -0.9239 0.0000 -0.3827
vn -0.9368 0.2962 -0.1863
vn -0.9808 0.0000 -0.1951
vn -0.9551 0.2962 0.0000
vn -1.0000 0.0000 0.0000
vn -0.9368 0.2962 0.1863
vn -0.9808 0.0000 0.1951
vn -0.8824 0.2962 0.3655
vn -0.9239 0.0000 0.3827
vn -0.7942 0.2962 0.5306
vn -0.8314 0.0000 0.5556
vn -0.6754 0.2962 0.6754
vn -0.7071 0.0000 0.7071
vn -0.5306 0.2962 0.7942
vn -0.5556 0.0000 0.8314
vn -0.3655 0.2962 0.8824
vn -0.3827 0.0000 0.9239
vn -0.1863 0.2962 0.9368
vn -0.1951 0.0000 0.9808
vn 0.0000 0.2962 0.9551
vn 0.0000 0.0000 1.0000
vn 0.1863 0.2962 0.9368
vn 0.1951 0.0000 0.9808
vn 0.3655 0.2962 0.8824
vn 0.3827 0.0000 0.9239
vn 0.5306 0.2962 0.7942
vn 0.5556 0.0000 0.8314
vn 0.6754 0.2962 0.6754
vn 0.7071 0.0000 0.7071
vn 0.7942 0.2962 0.5306
vn 0.8314 0.0000 0.5556
vn 0.8824 0.2962 0.3655
vn 0.9239 0.0000 0.3827
vn 0.9661 0.2324 -0.1123
vn 0.9988 0.0000 -0.0478
vn 0.9153 0.3926 0.0901
vn 0.9952 0.0000 0.0980
vn 0.6968 0.2160 0.6839
vn 0.4562 0.0855 0.8857
vn 0.7409 0.0000 0.6715
vn 0.4725 0.0000 0.8813
vn 0.9158 0.2899 -0.2778
vn 0.9368 0.2962 -0.1863
vn 0.9569 0.0000 -0.2903
vn 0.9808 0.0000 -0.1951
vn 0.7942 0.2962 -0.5306
vn 0.8824 0.2962 -0.3655
vn 0.8314 0.0000 -0.5556
vn 0.9239 0.0000 -0.3827
vn 0.6754 0.2962 -0.6754
vn 0.7071 0.0000 -0.7071
vn 0.5306 0.2962 -0.7942
vn 0.5556 0.0000 -0.8314
vn 0.3655 0.2962 -0.8824
vn 0.3827 0.0000 -0.9239
vn 0.1863 0.2962 -0.9368
vn 0.1951 0.0000 -0.9808
usemtl Material.001
s 1
f 68//1 2//2 4//3 69//4
f 69//4 4//3 6//5 73//6
f 73//6 6//5 8//7 77//8
f 77//8 8//7 10//9 81//10
f 81//10 10//9 12//11 85//12
f 85//12 12//11 14//13 89//14
f 198//15 194//16 16//17 93//18
f 204//19 200//20 18//21 97//22
f 210//23 206//24 20//25 101//26
f 101//26 20//25 22//27 105//28
f 105//28 22//27 24//29 109//30
f 109//30 24//29 26//31 113//32
f 113//32 26//31 28//33 117//34
f 117//34 28//33 30//35 121//36
f 121//36 30//35 32//37 125//38
f 125//38 32//37 34//39 129//40
f 129//40 34//39 36//41 133//42
f 133//42 36//41 38//43 137//44
f 137//44 38//43 40//45 141//46
f 141//46 40//45 42//47 145//48
f 145//48 42//47 44//49 149//50
f 149//50 44//49 46//51 153//52
f 153//52 46//51 48//53 157//54
f 157//54 48//53 50//55 161//56
f 161//56 50//55 52//57 165//58
f 165//58 52//57 54//59 169//60
f 169//60 54//59 56//61 173//62
f 173//62 56//61 58//63 177//64
f 177//64 58//63 60//65 181//66
f 181//66 60//65 62//67 185//68
f 4//3 2//2 64//69 62//67 60//65 58//63 56//61 54//59 52//57 50//55 48//53 46//51 44//49 42//47 40//45 38//43 36//41 34//39 32//37 30//35 28//33 26//31 24//29 22//27 20//25 206//24 18//21 200//20 16//17 194//16 14//13 12//11 10//9 8//7 6//5
f 185//68 62//67 64//69 189//70
f 189//70 64//69 2//2 68//1
f 1//71 3//72 5//73 7//74 9//75 11//76 13//77 193//78 15//79 199//80 17//81 205//82 19//83 21//84 23//85 25//86 27//87 29//88 31//89 33//90 35//91 37//92 39//93 41//94 43//95 45//96 47//97 49//98 51//99 53//100 55//101 57//102 59//103 61//104 63//105
f 63//105 192//106 65//107 1//71
f 192//106 191//108 66//109 65//107
f 191//108 190//108 67//109 66//109
f 190//108 189//70 68//1 67//109
f 61//104 188//110 192//106 63//105
f 188//110 187//111 191//108 192//106
f 187//111 186//111 190//108 191//108
f 186//111 185//68 189//70 190//108
f 59//103 184//112 188//110 61//104
f 184//112 183//113 187//111 188//110
f 183//113 182//113 186//111 187//111
f 182//113 181//66 185//68 186//111
f 57//102 180//114 184//112 59//103
f 180//114 179//115 183//113 184//112
f 179//115 178//115 182//113 183//113
f 178//115 177//64 181//66 182//113
f 55//101 176//116 180//114 57//102
f 176//116 175//117 179//115 180//114
f 175//117 174//117 178//115 179//115
f 174//117 173//62 177//64 178//115
f 53//100 172//118 176//116 55//101
f 172//118 171//119 175//117 176//116
f 171//119 170//119 174//117 175//117
f 170//119 169//60 173//62 174//117
f 51//99 168//120 172//118 53//100
f 168//120 167//121 171//119 172//118
f 167//121 166//121 170//119 171//119
f 166//121 165//58 169//60 170//119
f 49//98 164//122 168//120 51//99
f 164//122 163//123 167//121 168//120
f 163//123 162//123 166//121 167//121
f 162//123 161//56 165//58 166//121
f 47//97 160//124 164//122 49//98
f 160//124 159//125 163//123 164//122
f 159//125 158//125 162//123 163//123
f 158//125 157//54 161//56 162//123
f 45//96 156//126 160//124 47//97
f 156//126 155//127 159//125 160//124
f 155//127 154//127 158//125 159//125
f 154//127 153//52 157//54 158//125
f 43//95 152//128 156//126 45//96
f 152//128 151//129 155//127 156//126
f 151//129 150//129 154//127 155//127
f 150//129 149//50 153//52 154//127
f 41//94 148//130 152//128 43//95
f 148//130 147//131 151//129 152//128
f 147//131 146//131 150//129 151//129
f 146//131 145//48 149//50 150//129
f 39//93 144//132 148//130 41//94
f 144//132 143//133 147//131 148//130
f 143//133 142//133 146//131 147//131
f 142//133 141//46 145//48 146//131
f 37//92 140//134 144//132 39//93
f 140//134 139//135 143//133 144//132
f 139//135 138//135 142//133 143//133
f 138//135 137//44 141//46 142//133
f 35//91 136//136 140//134 37//92
f 136//136 135//137 139//135 140//134
f 135//137 134//137 138//135 139//135
f 134//137 133//42 137//44 138//135
f 33//90 132//138 136//136 35//91
f 132//138 131//139 135//137 136//136
f 131//139 130//139 134//137 135//137
f 130//139 129//40 133//42 134//137
f 31//89 128//140 132//138 33//90
f 128//140 127//141 131//139 132//138
f 127//141 126//141 130//139 131//139
f 126//141 125//38 129//40 130//139
f 29//88 124//142 128//140 31//89
f 124//142 123//143 127//141 128//140
f 123//143 122//143 126//141 127//141
f 122//143 121//36 125//38 126//141
f 27//87 120//144 124//142 29//88
f 120//144 119//145 123//143 124//142
f 119//145 118//145 122//143 123//143
f 118//145 117//34 121//36 122//143
f 25//86 116//146 120//144 27//87
f 116//146 115//147 119//145 120//144
f 115//147 114//147 118//145 119//145
f 114//147 113//32 117//34 118//145
f 23//85 112//148 116//146 25//86
f 112//148 111//149 115//147 116//146
f 111//149 110//149 114//147 115//147
f 110//149 109//30 113//32 114//147
f 21//84 108//150 112//148 23//85
f 108//150 107//151 111//149 112//148
f 107//151 106//151 110//149 111//149
f 106//151 105//28 109//30 110//149
f 19//83 104//152 108//150 21//84
f 104//152 103//153 107//151 108//150
f 103//153 102//153 106//151 107//151
f 102//153 101//26 105//28 106//151
f 205//82 207//154 104//152 19//83
f 207//154 208//155 103//153 104//152
f 208//155 209//155 102//153 103//153
f 209//155 210//23 101//26 102//153
f 199//80 201//156 100//157 17//81
f 201//156 202//158 99//159 100//157
f 202//158 203//158 98//159 99//159
f 203//158 204//19 97//22 98//159
f 193//78 195//160 96//161 15//79
f 195//160 196//162 95//163 96//161
f 196//162 197//162 94//163 95//163
f 197//162 198//15 93//18 94//163
f 11//76 88//164 92//165 13//77
f 88//164 87//166 91//167 92//165
f 87//166 86//166 90//167 91//167
f 86//166 85//12 89//14 90//167
f 9//75 84//168 88//164 11//76
f 84//168 83//169 87//166 88//164
f 83//169 82//169 86//166 87//166
f 82//169 81//10 85//12 86//166
f 7//74 80//170 84//168 9//75
f 80//170 79//171 83//169 84//168
f 79//171 78//171 82//169 83//169
f 78//171 77//8 81//10 82//169
f 5//73 76//172 80//170 7//74
f 76//172 75//173 79//171 80//170
f 75//173 74//173 78//171 79//171
f 74//173 73//6 77//8 78//171
f 3//72 72//174 76//172 5//73
f 72//174 71//175 75//173 76//172
f 71//175 70//175 74//173 75//173
f 70//175 69//4 73//6 74//173
f 1//71 65//107 72//174 3//72
f 65//107 66//109 71//175 72//174
f 66//109 67//109 70//175 71//175
f 67//109 68//1 69//4 70//175
f 90//167 89//14 198//15 197//162
f 91//167 90//167 197//162 196//162
f 92//165 91//167 196//162 195//160
f 13//77 92//165 195//160 193//78
f 89//14 14//13 194//16 198//15
f 94//163 93//18 204//19 203//158
f 95//163 94//163 203//158 202//158
f 96//161 95//163 202//158 201//156
f 15//79 96//161 201//156 199//80
f 93//18 16//17 200//20 204//19
f 98//159 97//22 210//23 209//155
f 99//159 98//159 209//155 208//155
f 100//157 99//159 208//155 207//154
f 17//81 100//157 207//154 205//82
f 97//22 18//21 206//24 210//23
